<svg xmlns="http://www.w3.org/2000/svg" width="26.795" height="26.795" viewBox="0 0 26.795 26.795">
  <path id="Path_18001" data-name="Path 18001" d="M27.2,21.283l-3.789-.433a2.969,2.969,0,0,0-2.446.85l-2.745,2.745a22.442,22.442,0,0,1-9.83-9.83l2.76-2.76A2.969,2.969,0,0,0,12,9.409L11.564,5.65A2.985,2.985,0,0,0,8.6,3.01H6.015A2.96,2.96,0,0,0,3.032,6.1a25.345,25.345,0,0,0,23.7,23.7,2.96,2.96,0,0,0,3.088-2.983V24.236A2.956,2.956,0,0,0,27.2,21.283Z" transform="translate(-3.026 -3.01)" fill="#fff"/>
</svg>
