<svg viewBox="0 0 130 130" role="img" xmlns="http://www.w3.org/2000/svg" width="30" height="30" version="1.1"><path d="M3.229,43.133h24.948v79.049H3.229V43.133z M15.067,33.246h-0.181C5.855,33.246,0,27.203,0,19.543C0,11.734,6.028,5.818,15.24,5.818c9.204,0,14.864,5.901,15.044,13.703 C30.284,27.18,24.444,33.246,15.067,33.246z M128,122.182H99.71V81.275c0-10.707-4.425-18.017-14.156-18.017 c-7.443,0-11.582,4.933-13.509,9.686c-0.722,1.706-0.61,4.083-0.61,6.46v42.777H43.409c0,0,0.361-72.462,0-79.049h28.026v12.406 c1.656-5.424,10.611-13.166,24.903-13.166c17.731,0,31.661,11.37,31.661,35.855V122.182z"/></svg>